# xmcd
#
# Track frame offsets: 
#        150
#        12615
#        26445
#        41145
#        53075
#        66045
#        80420
#        94682
#        110320
#        121325
#        135672
#
# Disc length: 2066 seconds
#
# Revision: 3
# Processed by: cddbd v1.5PL3 Copyright (c) Steve Scherf et al.
# Submitted via: ExactAudioCopy v0.95a3
#
DISCID=8b08100b
DTITLE=Rick Trevino - Rick Trevino
DYEAR=1994
DGENRE=Country
TTITLE0=Honky Tonk Crowd
TTITLE1=Doctor Time
TTITLE2=She Can't Say I Didn't Cry
TTITLE3=Walk Out Backwards
TTITLE4=Life Can Turn On A Dime
TTITLE5=Just Enough Rope
TTITLE6=She Just Left Me Lounge
TTITLE7=What I'll Know Then
TTITLE8=It Only Hurts When I Laugh
TTITLE9=Un Momento Allá
TTITLE10=Just Enough Rope (Bilingual)
EXTD=
EXTT0=
EXTT1=
EXTT2=
EXTT3=
EXTT4=
EXTT5=
EXTT6=
EXTT7=
EXTT8=
EXTT9=
EXTT10=
PLAYORDER=
